<svg width="25" height="26" viewBox="0 0 25 26" fill="none" xmlns="http://www.w3.org/2000/svg">
<path d="M11.3683 2.84636C6.63557 3.36078 2.82884 7.16751 2.31442 11.7973C1.79999 16.6329 4.57788 20.954 8.79615 22.6002C9.1048 22.7031 9.41346 22.4973 9.41346 22.0858V20.4396C9.41346 20.4396 9.00192 20.5425 8.48749 20.5425C7.04711 20.5425 6.4298 19.3079 6.32692 18.5877C6.22403 18.1762 6.01826 17.8675 5.70961 17.5589C5.40096 17.456 5.29807 17.456 5.29807 17.3531C5.29807 17.1473 5.60672 17.1473 5.70961 17.1473C6.32692 17.1473 6.84134 17.8675 7.04711 18.1762C7.56153 18.9992 8.17884 19.205 8.48749 19.205C8.89903 19.205 9.20769 19.1021 9.41346 18.9992C9.51634 18.279 9.82499 17.5589 10.4423 17.1473C8.07596 16.6329 6.32692 15.2954 6.32692 13.0319C6.32692 11.9002 6.84134 10.7685 7.56153 9.9454C7.45865 9.73963 7.35576 9.2252 7.35576 8.50501C7.35576 8.09347 7.35576 7.47617 7.66442 6.85886C7.66442 6.85886 9.1048 6.85886 10.5452 8.19636C11.0596 7.99059 11.7798 7.8877 12.5 7.8877C13.2202 7.8877 13.9404 7.99059 14.5577 8.19636C15.8952 6.85886 17.4385 6.85886 17.4385 6.85886C17.6442 7.47617 17.6442 8.09347 17.6442 8.50501C17.6442 9.32809 17.5413 9.73963 17.4385 9.9454C18.1586 10.7685 18.6731 11.7973 18.6731 13.0319C18.6731 15.2954 16.924 16.6329 14.5577 17.1473C15.175 17.6617 15.5865 18.5877 15.5865 19.5137V22.1887C15.5865 22.4973 15.8952 22.806 16.3067 22.7031C20.1135 21.1598 22.7885 17.456 22.7885 13.1348C22.7885 6.96174 17.5413 2.12617 11.3683 2.84636Z" fill="#666666"/>
</svg>
