<svg width="25" height="26" viewBox="0 0 25 26" fill="none" xmlns="http://www.w3.org/2000/svg">
<path d="M19.8558 3.77222H5.45192C4.31504 3.77222 3.39423 4.69303 3.39423 5.82991V20.2338C3.39423 21.3706 4.31504 22.2914 5.45192 22.2914H19.8558C20.9926 22.2914 21.9135 21.3706 21.9135 20.2338V5.82991C21.9135 4.69303 20.9926 3.77222 19.8558 3.77222ZM9.5673 18.1761H6.97152V10.9741H9.5673V18.1761ZM8.22363 9.65413C7.43039 9.65413 6.90053 9.1253 6.90053 8.41952C6.90053 7.71373 7.42936 7.1849 8.31108 7.1849C9.10432 7.1849 9.63418 7.71373 9.63418 8.41952C9.63418 9.1253 9.10535 9.65413 8.22363 9.65413ZM18.8269 18.1761H16.3145V14.2397C16.3145 13.1512 15.6447 12.9001 15.3937 12.9001C15.1426 12.9001 14.3051 13.0678 14.3051 14.2397C14.3051 14.4074 14.3051 18.1761 14.3051 18.1761H11.7094V10.9741H14.3051V11.9793C14.6395 11.3929 15.3093 10.9741 16.5655 10.9741C17.8217 10.9741 18.8269 11.9793 18.8269 14.2397V18.1761Z" fill="#666666"/>
</svg>
