<svg width="56" height="65" viewBox="0 0 56 65" fill="none" xmlns="http://www.w3.org/2000/svg">
<path d="M9 17H50V58H9V17Z" fill="#D9D9D9"/>
<g filter="url(#filter0_b_439_33)">
<path d="M12.18 30.366C11.424 30.366 10.85 30.352 10.458 30.324C9.254 35.588 8.582 39.242 8.442 41.286C7.238 41.874 5.404 42.168 2.94 42.168C2.408 42.168 2.044 42.154 1.848 42.126C2.044 40.474 2.884 36.33 4.368 29.694C5.852 23.03 6.594 18.83 6.594 17.094C6.594 16.758 6.398 16.324 6.006 15.792C5.642 15.232 5.264 14.77 4.872 14.406L4.326 13.86L4.452 13.23C9.156 12.53 12.964 12.18 15.876 12.18C21.644 12.18 24.528 14.532 24.528 19.236C24.528 22.372 23.492 25.018 21.42 27.174C19.348 29.302 16.268 30.366 12.18 30.366ZM11.508 27.552C13.664 27.552 15.288 26.74 16.38 25.116C17.5 23.492 18.06 21.322 18.06 18.606C18.06 17.486 17.85 16.576 17.43 15.876C17.01 15.148 16.394 14.784 15.582 14.784C15.05 14.784 14.392 14.882 13.608 15.078C13.16 18.018 12.32 22.176 11.088 27.552H11.508ZM41.0717 33.768C41.0717 36.456 40.0497 38.584 38.0057 40.152C35.9617 41.72 33.4837 42.504 30.5717 42.504C28.6117 42.504 26.9877 42.014 25.6997 41.034C24.4397 40.026 23.7397 39.172 23.5997 38.472C23.9077 37.548 24.5657 36.512 25.5737 35.364C26.5817 34.216 27.4917 33.516 28.3037 33.264C29.7317 34.188 31.0617 36.246 32.2937 39.438C34.1137 39.382 35.0237 38.388 35.0237 36.456C35.0237 35.392 34.5897 34.09 33.7217 32.55C32.8817 30.982 31.9577 29.526 30.9497 28.182C29.9417 26.81 29.0037 25.284 28.1357 23.604C27.2957 21.896 26.8757 20.384 26.8757 19.068C26.8757 16.94 27.7297 15.26 29.4377 14.028C31.1737 12.796 33.1197 12.18 35.2757 12.18C37.4317 12.18 39.0977 12.642 40.2737 13.566C41.4777 14.49 42.0797 15.54 42.0797 16.716C42.0797 17.892 41.6317 19.096 40.7357 20.328C39.8397 21.56 38.9437 22.54 38.0477 23.268L36.7037 24.36C37.0397 24.808 37.4457 25.382 37.9217 26.082C38.3977 26.782 39.0417 27.972 39.8537 29.652C40.6657 31.332 41.0717 32.704 41.0717 33.768ZM37.8377 19.992C38.2297 19.628 38.5797 19.194 38.8877 18.69C39.1957 18.158 39.3497 17.612 39.3497 17.052C39.3497 16.464 39.0137 15.974 38.3417 15.582C37.6697 15.19 36.8577 14.994 35.9057 14.994C34.9817 14.994 34.1977 15.218 33.5537 15.666C32.9377 16.086 32.6297 16.604 32.6297 17.22C32.6297 17.808 32.8257 18.508 33.2177 19.32C33.6377 20.104 34.0437 20.762 34.4357 21.294L35.0657 22.092C35.3457 21.952 35.7797 21.658 36.3677 21.21C36.9837 20.762 37.4737 20.356 37.8377 19.992Z" fill="#575757"/>
</g>
<rect x="16" y="25" width="40" height="40" fill="#FA4529" fill-opacity="0.1"/>
<defs>
<filter id="filter0_b_439_33" x="-2.15198" y="8.18005" width="48.2317" height="38.324" filterUnits="userSpaceOnUse" color-interpolation-filters="sRGB">
<feFlood flood-opacity="0" result="BackgroundImageFix"/>
<feGaussianBlur in="BackgroundImage" stdDeviation="2"/>
<feComposite in2="SourceAlpha" operator="in" result="effect1_backgroundBlur_439_33"/>
<feBlend mode="normal" in="SourceGraphic" in2="effect1_backgroundBlur_439_33" result="shape"/>
</filter>
</defs>
</svg>
